<svg version="1.1" viewBox="0.0 0.0 400.0 40.0" fill="none" stroke="none" stroke-linecap="square" stroke-miterlimit="10" xmlns:xlink="http://www.w3.org/1999/xlink" xmlns="http://www.w3.org/2000/svg"><clipPath id="p.0"><path d="m0 0l400.0 0l0 40.0l-400.0 0l0 -40.0z" clip-rule="nonzero"/></clipPath><g clip-path="url(#p.0)"><path fill="#000000" fill-opacity="0.0" d="m0 0l400.0 0l0 40.0l-400.0 0z" fill-rule="evenodd"/><path fill="#000000" fill-opacity="0.0" d="m0 -19.2l398.58267 0l0 40.0l-398.58267 0z" fill-rule="evenodd"/><path fill="#5468ff" d="m8.703125 37.12l20.34375 -40.640625l20.328125 40.640625l-40.671875 0z" fill-rule="nonzero"/><path fill="#000000" d="m59.85167 34.21375l3.09375 0l0 -24.90625l-3.09375 0l0 -2.90625l13.296875 0l0 2.90625l-3.078125 0l0 24.90625l3.078125 0l0 2.90625l-13.296875 0l0 -2.90625zm28.03659 3.4375q-2.78125 0 -4.875 -0.921875q-2.078125 -0.921875 -3.515625 -2.546875q-1.421875 -1.640625 -2.15625 -3.828125q-0.71875 -2.203125 -0.71875 -4.8125q0 -2.890625 0.921875 -5.109375q0.921875 -2.234375 2.53125 -3.765625q1.609375 -1.546874 3.78125 -2.328124q2.1875 -0.796875 4.6875 -0.796875q4.046875 0 6.21875 1.671875q2.1875 1.671874 2.1875 4.218749q0 1.671875 -0.921875 2.671875q-0.921875 0.984375 -2.546875 0.984375q-1.640625 0 -2.515625 -0.859375q-0.875 -0.859375 -0.875 -2.265625q0 -1.140625 0.59375 -1.890625q0.59375 -0.75 1.34375 -1.109375l0 -0.265625q-0.453125 -0.125 -1.046875 -0.25q-0.59375 -0.140625 -1.59375 -0.140625q-2.6875 0 -4.1875 1.703125q-1.5 1.6875 -1.5 4.859375l0 4.5625q0 2.90625 1.359375 4.4375q1.375 1.515625 3.796875 1.515625q2.46875 0 3.90625 -1.140625q1.453125 -1.15625 2.078125 -2.6875l2.46875 1.453125q-0.40625 1.09375 -1.140625 2.28125q-0.71875 1.1875 -1.859375 2.15625q-1.140625 0.96875 -2.734375 1.59375q-1.578125 0.609375 -3.6875 0.609375zm23.319946 0q-2.734375 0 -4.828125 -0.90625q-2.078125 -0.90625 -3.515625 -2.5q-1.421875 -1.609375 -2.171875 -3.828125q-0.75 -2.234375 -0.75 -4.875q0 -2.765625 0.765625 -5.0q0.78125 -2.25 2.203125 -3.78125q1.4375 -1.546874 3.4375 -2.374999q2.0 -0.84375 4.46875 -0.84375q2.453125 0 4.4375 0.75q1.984375 0.734375 3.359375 2.124999q1.390625 1.390625 2.140625 3.375q0.75 1.96875 0.75 4.390625l0 1.5l-14.484375 0l0 1.75q0 2.953125 1.546875 4.453125q1.546875 1.5 4.09375 1.5q2.375 0 3.828125 -1.078125q1.453125 -1.078125 2.0625 -2.625l2.421875 1.453125q-0.390625 1.09375 -1.140625 2.25q-0.75 1.140625 -1.9375 2.09375q-1.1875 0.9375 -2.859375 1.5625q-1.671875 0.609375 -3.828125 0.609375zm-4.1875 -14.75l7.578125 0l0 -0.609375q0 -3.171875 -1.015625 -4.4375q-1.015625 -1.28125 -2.765625 -1.28125q-1.765625 0 -2.78125 1.28125q-1.015625 1.265625 -1.015625 4.4375l0 0.609375zm17.341446 11.3125l2.640625 0l0 -25.5625l-2.640625 -0.578125l0 -2.5l9.328125 -1.8906252l0 30.53125l2.640625 0l0 2.90625l-11.96875 0l0 -2.90625zm21.734589 3.4375q-3.734375 0 -5.4375 -1.734375q-1.6875 -1.75 -1.6875 -4.875q0 -6.8125 10.078125 -6.8125l3.078125 0l0 -2.515625q0 -2.671875 -1.015625 -4.03125q-1.015625 -1.375 -3.515625 -1.375q-0.921875 0 -1.59375 0.140625q-0.65625 0.125 -1.140625 0.34375l0 0.21875q0.4375 0.21875 0.859375 0.796875q0.421875 0.5625 0.421875 1.53125q0 1.328125 -0.84375 2.234375q-0.828125 0.890625 -2.5 0.890625q-1.328125 0 -2.203125 -0.921875q-0.875 -0.921875 -0.875 -2.328125q0 -1.0625 0.609375 -2.09375q0.625 -1.03125 1.84375 -1.812499q1.234375 -0.796875 3.0625 -1.28125q1.828125 -0.484375 4.203125 -0.484375q4.796875 0 7.078125 2.046875q2.296875 2.046874 2.296875 5.781249l0 12.84375l2.640625 0l0 2.515625q-0.75 0.4375 -1.9375 0.671875q-1.1875 0.25 -2.46875 0.25q-2.421875 0 -3.40625 -1.125q-0.984375 -1.125 -0.984375 -2.796875l0 -0.078125l-0.265625 0q-0.3125 0.734375 -0.78125 1.453125q-0.453125 0.703125 -1.1875 1.28125q-0.71875 0.5625 -1.78125 0.90625q-1.046875 0.359375 -2.546875 0.359375zm2.515625 -3.96875q1.625 0 2.5625 -0.734375q0.953125 -0.75 0.953125 -2.609375l0 -3.46875l-2.375 0q-2.109375 0 -3.15625 0.890625q-1.03125 0.875 -1.03125 2.5l0 0.703125q0 1.40625 0.828125 2.0625q0.84375 0.65625 2.21875 0.65625zm15.655197 0.53125l2.640625 0l0 -15.703125l-2.640625 -0.578125l0 -2.499999l9.203125 -1.890625l0 4.343749l0.21875 0q0.609375 -1.75 2.1875 -3.046874q1.59375 -1.296875 4.359375 -1.296875q4.234375 0 5.96875 2.140625q1.734375 2.124999 1.734375 6.390624l0 12.140625l2.640625 0l0 2.90625l-11.75 0l0 -2.90625l2.421875 0l0 -11.921875q0 -2.328125 -0.8125 -3.3125q-0.8125 -1.0 -2.75 -1.0q-0.75 0 -1.5 0.203125q-0.75 0.1875 -1.328125 0.609375q-0.5625 0.421875 -0.921875 1.0625q-0.34375 0.640625 -0.34375 1.5625l0 12.796875l2.421875 0l0 2.90625l-11.75 0l0 -2.90625zm38.502945 3.4375q-2.109375 0 -3.8125 -0.859375q-1.6875 -0.859375 -2.875 -2.4375q-1.1875 -1.59375 -1.828125 -3.8125q-0.640625 -2.21875 -0.640625 -4.953125q0 -2.71875 0.640625 -4.9375q0.640625 -2.234375 1.828125 -3.8125q1.1875 -1.593749 2.875 -2.437499q1.703125 -0.859375 3.8125 -0.859375q1.234375 0 2.21875 0.328125q1.0 0.328125 1.765625 0.859375q0.765625 0.515625 1.296875 1.234375q0.53125 0.70312405 0.828125 1.437499l0.234375 0l0 -8.749999l-2.640625 -0.578125l0 -2.5l9.328125 -1.8906252l0 29.0l2.625 0.5625l0 2.515625l-9.3125 1.890625l0 -3.96875l-0.234375 0q-0.609375 1.546875 -2.171875 2.765625q-1.5625 1.203125 -3.9375 1.203125zm2.25 -4.046875q1.75 0 2.921875 -1.09375q1.171875 -1.109375 1.171875 -2.953125l0 -7.96875q0 -1.84375 -1.171875 -2.9375q-1.171875 -1.109375 -2.921875 -1.109375q-1.859375 0 -3.09375 1.28125q-1.21875 1.265625 -1.21875 3.734375l0 6.03125q0 2.453125 1.21875 3.734375q1.234375 1.28125 3.09375 1.28125zm22.120438 -22.578125q-1.84375 0 -2.875 -1.0q-1.03125 -1.015625 -1.03125 -2.734375l0 -0.21875q0 -1.71875 1.03125 -2.734375q1.03125 -1.0156252 2.875 -1.0156252q1.859375 0 2.890625 1.0156252q1.03125 1.015625 1.03125 2.734375l0 0.21875q0 1.71875 -1.03125 2.734375q-1.03125 1.0 -2.890625 1.0zm-5.9375 23.1875l2.640625 0l0 -15.703125l-2.640625 -0.578125l0 -2.499999l9.328125 -1.890625l0 20.671875l2.640625 0l0 2.90625l-11.96875 0l0 -2.90625zm26.052475 3.4375q-2.78125 0 -4.875 -0.921875q-2.078125 -0.921875 -3.515625 -2.546875q-1.421875 -1.640625 -2.15625 -3.828125q-0.71875 -2.203125 -0.71875 -4.8125q0 -2.890625 0.921875 -5.109375q0.921875 -2.234375 2.53125 -3.765625q1.609375 -1.546874 3.78125 -2.328124q2.1875 -0.796875 4.6875 -0.796875q4.046875 0 6.21875 1.671875q2.1875 1.671874 2.1875 4.218749q0 1.671875 -0.921875 2.671875q-0.921875 0.984375 -2.546875 0.984375q-1.640625 0 -2.515625 -0.859375q-0.875 -0.859375 -0.875 -2.265625q0 -1.140625 0.59375 -1.890625q0.59375 -0.75 1.34375 -1.109375l0 -0.265625q-0.453125 -0.125 -1.046875 -0.25q-0.59375 -0.140625 -1.59375 -0.140625q-2.6875 0 -4.1875 1.703125q-1.5 1.6875 -1.5 4.859375l0 4.5625q0 2.90625 1.359375 4.4375q1.375 1.515625 3.796875 1.515625q2.46875 0 3.90625 -1.140625q1.453125 -1.15625 2.078125 -2.6875l2.46875 1.453125q-0.40625 1.09375 -1.140625 2.28125q-0.71875 1.1875 -1.859375 2.15625q-1.140625 0.96875 -2.734375 1.59375q-1.578125 0.609375 -3.6875 0.609375zm22.435425 -3.4375l2.640625 0l0 -17.0625l-2.640625 0l0 -3.093749l2.640625 0l0 -1.796875q0 -4.09375 2.546875 -6.328125q2.5625 -2.2500002 7.171875 -2.2500002q1.546875 0 2.671875 0.37500024q1.125 0.375 1.859375 1.0q0.75 0.609375 1.09375 1.40625q0.359375 0.78125 0.359375 1.609375q0 1.421875 -0.796875 2.296875q-0.78125 0.875 -2.1875 0.875q-1.453125 0 -2.203125 -0.78125q-0.75 -0.796875 -0.75 -1.9375q0 -0.890625 0.375 -1.375q0.375 -0.484375 0.78125 -0.65625l0 -0.265625q-0.453125 -0.078125 -1.0625 -0.078125q-1.671875 0 -2.421875 1.140625q-0.75 1.140625 -0.75 3.78125l0 2.984375l4.40625 0l0 3.093749l-4.40625 0l0 17.0625l3.515625 0l0 2.90625l-12.84375 0l0 -2.90625zm26.627472 3.4375q-4.234375 0 -5.96875 -2.125q-1.734375 -2.140625 -1.734375 -6.421875l0 -10.59375l-2.640625 -0.578125l0 -2.499999l9.328125 -1.890625l0 15.343749q0 2.34375 0.8125 3.328125q0.8125 0.984375 2.75 0.984375q0.75 0 1.5 -0.1875q0.75 -0.203125 1.3125 -0.609375q0.578125 -0.421875 0.921875 -1.0625q0.359375 -0.640625 0.359375 -1.5625l0 -11.265625l-2.640625 -0.578125l0 -2.499999l9.328125 -1.890625l0 19.140625l2.640625 0.5625l0 2.515625l-9.203125 1.890625l0 -4.359375l-0.21875 0q-0.609375 1.765625 -2.203125 3.0625q-1.578125 1.296875 -4.34375 1.296875zm18.780426 -3.4375l2.640625 0l0 -15.703125l-2.640625 -0.578125l0 -2.499999l9.203125 -1.890625l0 4.343749l0.21875 0q0.609375 -1.75 2.1875 -3.046874q1.59375 -1.296875 4.359375 -1.296875q4.234375 0 5.96875 2.140625q1.734375 2.124999 1.734375 6.390624l0 12.140625l2.640625 0l0 2.90625l-11.75 0l0 -2.90625l2.421875 0l0 -11.921875q0 -2.328125 -0.8125 -3.3125q-0.8125 -1.0 -2.75 -1.0q-0.75 0 -1.5 0.203125q-0.75 0.1875 -1.328125 0.609375q-0.5625 0.421875 -0.921875 1.0625q-0.34375 0.640625 -0.34375 1.5625l0 12.796875l2.421875 0l0 2.90625l-11.75 0l0 -2.90625zm38.50299 3.4375q-2.109375 0 -3.8125 -0.859375q-1.6875 -0.859375 -2.875 -2.4375q-1.1875 -1.59375 -1.828125 -3.8125q-0.640625 -2.21875 -0.640625 -4.953125q0 -2.71875 0.640625 -4.9375q0.640625 -2.234375 1.828125 -3.8125q1.1875 -1.593749 2.875 -2.437499q1.703125 -0.859375 3.8125 -0.859375q1.234375 0 2.21875 0.328125q1.0 0.328125 1.765625 0.859375q0.765625 0.515625 1.296875 1.234375q0.53125 0.70312405 0.828125 1.437499l0.234375 0l0 -8.749999l-2.640625 -0.578125l0 -2.5l9.328125 -1.8906252l0 29.0l2.625 0.5625l0 2.515625l-9.3125 1.890625l0 -3.96875l-0.234375 0q-0.609375 1.546875 -2.171875 2.765625q-1.5625 1.203125 -3.9375 1.203125zm2.25 -4.046875q1.75 0 2.921875 -1.09375q1.171875 -1.109375 1.171875 -2.953125l0 -7.96875q0 -1.84375 -1.171875 -2.9375q-1.171875 -1.109375 -2.921875 -1.109375q-1.859375 0 -3.09375 1.28125q-1.21875 1.265625 -1.21875 3.734375l0 6.03125q0 2.453125 1.21875 3.734375q1.234375 1.28125 3.09375 1.28125zm26.167297 4.046875q-2.40625 0 -3.6875 -0.90625q-1.28125 -0.90625 -1.625 -2.0l-0.1875 0l0 2.375l-4.3125 0l0 -6.859375l4.3125 0l0 0.703125q0 1.71875 1.0625 2.59375q1.0625 0.875 3.4375 0.875q2.109375 0 3.078125 -0.65625q0.96875 -0.65625 0.96875 -2.03125q0 -1.09375 -0.703125 -1.6875q-0.703125 -0.59375 -2.34375 -1.078125l-2.0625 -0.578125q-3.828125 -1.046875 -5.65625 -2.828125q-1.828125 -1.78125 -1.828125 -4.828125q0 -3.46875 2.28125 -5.328124q2.296875 -1.875 6.046875 -1.875q2.328125 0 3.5625 0.875q1.234375 0.875 1.578125 1.984374l0.171875 0l0 -2.343749l4.3125 0l0 6.874999l-4.3125 0l0 -0.796875q0 -1.671875 -1.03125 -2.53125q-1.03125 -0.859375 -3.359375 -0.859375q-3.34375 0 -3.34375 2.421875q0 1.140625 0.671875 1.84375q0.6875 0.703125 2.484375 1.15625l1.90625 0.484375q1.84375 0.484375 3.25 1.09375q1.40625 0.609375 2.34375 1.46875q0.953125 0.859375 1.4375 2.078125q0.484375 1.203125 0.484375 2.875q0 3.65625 -2.46875 5.578125q-2.453125 1.90625 -6.46875 1.90625z" fill-rule="nonzero"/></g></svg>