<svg version="1.1" viewBox="0.0 0.0 407.9186351706037 39.35958005249344" fill="none" stroke="none" stroke-linecap="square" stroke-miterlimit="10" xmlns:xlink="http://www.w3.org/1999/xlink" xmlns="http://www.w3.org/2000/svg"><clipPath id="p.0"><path d="m0 0l407.91864 0l0 39.35958l-407.91864 0l0 -39.35958z" clip-rule="nonzero"/></clipPath><g clip-path="url(#p.0)"><path fill="#000000" fill-opacity="0.0" d="m0 0l407.91864 0l0 39.35958l-407.91864 0z" fill-rule="evenodd"/><path fill="#000000" fill-opacity="0.0" d="m-22.08 30.72l707.71655 0l0 32.472443l-707.71655 0z" fill-rule="evenodd"/><path fill="#5468ff" d="m-3.58 38.632442l22.1875 -44.34375l22.187498 44.34375l-44.375 0z" fill-rule="nonzero"/><path fill="#ffffff" d="m61.216873 9.4449415l0 24.0q0 2.390625 -0.1875 3.359375q-0.171875 0.953125 -1.0625 1.6875q-0.890625 0.734375 -2.15625 0.734375q-1.265625 0 -2.21875 -0.734375q-0.9375 -0.75 -1.125 -1.734375q-0.171875 -0.984375 -0.171875 -3.3125l0 -24.0q0 -2.3593755 0.171875 -3.2812505q0.1875 -0.9375 1.109375 -1.703125q0.921875 -0.78124976 2.171875 -0.78124976q1.21875 0 2.15625 0.71874976q0.9375 0.71875 1.125 1.703125q0.1875 0.984375 0.1875 3.3437505zm27.601562 19.0625q1.171875 0 1.9375 0.921875q0.78125 0.90625 0.78125 1.859375q0 2.609377 -3.125 5.281252q-3.109375 2.65625 -8.328125 2.65625q-6.3125 0 -9.53125 -3.578125q-3.203125 -3.578125 -3.203125 -9.296877q0 -5.796875 3.328125 -9.46875q3.328125 -3.687499 9.5 -3.687499q4.78125 0 7.90625 2.5q3.125 2.499999 3.125 4.937499q0 1.171875 -0.84375 1.953125q-0.84375 0.78125 -1.984375 0.78125q-1.40625 0 -2.203125 -1.1875q-1.765625 -2.671875 -3.125 -3.390625q-1.359375 -0.71875 -2.921875 -0.71875q-3.078125 0 -4.75 2.359375q-1.65625 2.359375 -1.65625 5.875q0 3.609375 1.75 5.890627q1.75 2.265625 4.65625 2.265625q1.65625 0 3.0625 -0.78125q1.40625 -0.796875 2.421875 -2.375002q1.03125 -1.578125 1.625 -2.1875q0.59375 -0.609375 1.578125 -0.609375zm26.164062 -0.734375l-12.5625 0q0.09375 3.5625 1.953125 5.390627q1.859375 1.8125 4.46875 1.8125q3.203125 0 6.046875 -2.8125q1.140625 -1.1718769 1.6875 -1.4531269q0.5625 -0.28125 1.234375 -0.28125q0.875 0 1.484375 0.546875q0.625 0.53125 0.625 1.3281269q0 2.15625 -2.953125 4.546875q-2.953125 2.375 -7.984375 2.375q-6.421875 0 -9.75 -3.625q-3.3125 -3.625002 -3.3125 -9.390627q0 -5.8125 3.3125 -9.40625q3.328125 -3.609374 9.234375 -3.609374q5.640625 0 8.703125 3.406249q3.078125 3.390625 3.078125 7.375q0 1.765625 -1.015625 2.78125q-1.015625 1.015625 -4.25 1.015625zm-12.5625 -3.625l11.640625 0q-0.109375 -3.1875 -1.75 -4.859375q-1.640625 -1.6875 -4.0625 -1.6875q-5.078125 0 -5.828125 6.546875zm29.617188 -15.187499l0 24.953125q0 2.328125 -0.21875 3.15625q-0.203125 0.828125 -1.078125 1.5q-0.859375 0.65625 -1.859375 0.65625q-1.03125 0 -1.921875 -0.640625q-0.890625 -0.65625 -1.109375 -1.515625q-0.203125 -0.875 -0.203125 -3.15625l0 -24.953125q0 -2.3750005 0.21875 -3.2031255q0.21875 -0.828125 1.078125 -1.453125q0.859375 -0.62499976 1.859375 -0.62499976q1.171875 0 2.03125 0.67187476q0.859375 0.671875 1.03125 1.578125q0.171875 0.890625 0.171875 3.0312505zm22.789062 26.640625q-4.578125 3.625 -8.953125 3.625q-4.15625 0 -6.390625 -2.109375q-2.21875 -2.125 -2.21875 -5.171877q0 -2.59375 1.515625 -4.203125q1.515625 -1.609375 3.296875 -2.234375q1.78125 -0.640625 5.796875 -1.46875q4.015625 -0.828125 6.484375 -1.53125q-0.03125 -2.90625 -1.15625 -3.921875q-1.125 -1.03125 -3.421875 -1.03125q-4.359375 0 -5.6875 2.4375q-0.75 1.390625 -1.34375 1.984375q-0.578125 0.578125 -1.6875 0.578125q-1.0 0 -1.828125 -0.671875q-0.8125 -0.671875 -0.8125 -1.71875q0 -2.484375 2.6875 -4.718749q2.703125 -2.25 8.484375 -2.25q5.859375 0 8.578125 2.03125q2.71875 2.031249 2.5625 8.187499l-0.140625 6.0q-0.09375 2.796877 0.5625 4.562502q0.671875 1.75 0.671875 2.6875q0 1.0 -0.890625 1.78125q-0.890625 0.78125 -2.015625 0.78125q-1.9375 0 -4.09375 -3.625zm-0.421875 -9.250002q-1.4375 0.5625 -4.734375 1.21875q-3.28125 0.65625 -4.65625 1.5q-1.375 0.84375 -1.375 2.453125q0 1.3906269 1.09375 2.453127q1.09375 1.046875 3.078125 1.046875q2.109375 0 3.921875 -1.15625q1.828125 -1.171875 2.25 -2.765627q0.421875 -1.59375 0.421875 -4.75zm35.335938 -2.9375l0 10.500002q0 2.046875 -0.171875 2.96875q-0.15625 0.921875 -1.0 1.640625q-0.84375 0.703125 -1.984375 0.703125q-1.03125 0 -1.921875 -0.625q-0.890625 -0.625 -1.109375 -1.625q-0.203125 -1.0 -0.203125 -3.0625l0 -9.203127q0 -3.84375 -1.15625 -5.171875q-1.140625 -1.34375 -3.15625 -1.34375q-1.828125 0 -3.21875 1.0625q-1.375 1.046875 -1.9375 2.625q-0.5625 1.578125 -0.5625 5.421875l0 6.609377q0 2.015625 -0.15625 2.9375q-0.15625 0.90625 -1.03125 1.640625q-0.859375 0.734375 -1.984375 0.734375q-1.046875 0 -1.9375 -0.640625q-0.890625 -0.65625 -1.078125 -1.609375q-0.1875 -0.96875 -0.1875 -3.0625l0 -15.765627q0 -2.140625 0.1875 -2.984374q0.203125 -0.84375 1.015625 -1.40625q0.8125 -0.5625 1.8125 -0.5625q0.9375 0 1.953125 0.75q1.03125 0.734375 1.03125 3.562499q3.203125 -4.312499 8.25 -4.312499q1.921875 0 3.796875 0.734375q1.875 0.71875 3.046875 2.359374q1.1875 1.625 1.4375 3.375q0.265625 1.734375 0.265625 3.75zm23.914062 12.140627l0 -0.625q-3.3125 4.296875 -8.375 4.296875q-4.890625 0 -7.796875 -3.734375q-2.890625 -3.734377 -2.890625 -9.640627q0 -5.578125 2.828125 -9.109375q2.828125 -3.546874 7.8125 -3.546874q4.859375 0 8.421875 3.921874l0 -8.296874q0 -3.4531255 0.859375 -4.2968755q0.875 -0.84374976 2.34375 -0.84374976q1.03125 0 1.890625 0.60937476q0.875 0.59375 1.078125 1.5625q0.203125 0.953125 0.203125 3.1562505l0 25.21875q0 2.125 -0.234375 3.046875q-0.21875 0.90625 -1.09375 1.421875q-0.859375 0.53125 -1.890625 0.53125q-3.15625 0 -3.15625 -3.671875zm-12.59375 -9.515627q0 4.3125 1.8125 6.296877q1.828125 1.984375 4.140625 1.984375q2.71875 0 4.5 -2.0625q1.78125 -2.062502 1.78125 -5.765627q0 -3.875 -1.734375 -6.171875q-1.734375 -2.296875 -4.59375 -2.296875q-2.59375 0 -4.25 2.140625q-1.65625 2.125 -1.65625 5.875zm28.34375 -22.078125q1.234375 0 2.140625 0.93749976q0.921875 0.9375 0.921875 2.1875q0 1.2812505 -0.921875 2.2187505q-0.90625 0.921875 -2.140625 0.921875q-1.296875 0 -2.21875 -0.921875q-0.921875 -0.9375 -0.921875 -2.2187505q0 -1.265625 0.921875 -2.1875q0.921875 -0.93749976 2.21875 -0.93749976zm3.15625 14.468749l0 15.484377q0 2.296875 -0.21875 3.140625q-0.203125 0.84375 -1.078125 1.515625q-0.859375 0.65625 -1.859375 0.65625q-1.03125 0 -1.921875 -0.640625q-0.890625 -0.65625 -1.109375 -1.515625q-0.203125 -0.875 -0.203125 -3.15625l0 -15.437502q0 -2.140625 0.15625 -3.015624q0.171875 -0.875 1.015625 -1.5625q0.859375 -0.703125 1.984375 -0.703125q1.15625 0 1.96875 0.625q0.828125 0.625 1.046875 1.578125q0.21875 0.93749905 0.21875 3.031249zm26.835953 10.078125q1.171875 0 1.9375 0.921875q0.78125 0.90625 0.78125 1.859375q0 2.609377 -3.125 5.281252q-3.1093903 2.65625 -8.32814 2.65625q-6.3125 0 -9.53125 -3.578125q-3.203125 -3.578125 -3.203125 -9.296877q0 -5.796875 3.328125 -9.46875q3.328125 -3.687499 9.5 -3.687499q4.78125 0 7.9062653 2.5q3.125 2.499999 3.125 4.937499q0 1.171875 -0.84375 1.953125q-0.84375 0.78125 -1.984375 0.78125q-1.40625 0 -2.203125 -1.1875q-1.7656403 -2.671875 -3.1250153 -3.390625q-1.359375 -0.71875 -2.921875 -0.71875q-3.078125 0 -4.75 2.359375q-1.65625 2.359375 -1.65625 5.875q0 3.609375 1.75 5.890627q1.75 2.265625 4.65625 2.265625q1.65625 0 3.0625 -0.78125q1.40625 -0.796875 2.4218903 -2.375002q1.03125 -1.578125 1.625 -2.1875q0.59375 -0.609375 1.578125 -0.609375zm23.507812 -14.749999l0 -1.875q0 -4.8906255 2.03125 -6.5468755q2.046875 -1.6562498 5.84375 -1.6562498q6.09375 0 6.09375 2.7499998q0 0.84375 -0.578125 1.5q-0.5625 0.6562505 -1.53125 0.6562505q-0.1875 0 -1.234375 -0.140625q-1.03125 -0.140625 -1.203125 -0.140625q-1.359375 0 -2.1875 0.703125q-0.828125 0.703125 -0.828125 3.234375l0 1.515625l1.609375 0q3.609375 0 3.609375 2.249999q0 1.109375 -0.6875 1.75q-0.6875 0.625 -2.921875 0.625l-1.609375 0l0 15.531252q0 1.8125 -0.15625 2.734375q-0.15625 0.921875 -0.859375 1.75q-0.703125 0.828125 -2.171875 0.828125q-1.53125 0 -2.375 -1.0q-0.84375 -1.0 -0.84375 -4.3125l0 -15.531252l-1.78125 0q-2.90625 0 -2.90625 -2.375q0 -2.249999 3.21875 -2.249999l1.46875 0zm14.84375 15.937499l0 -11.21875q0 -2.09375 0.15625 -3.015624q0.171875 -0.921875 1.0 -1.59375q0.828125 -0.671875 2.0 -0.671875q1.125 0 1.984375 0.640625q0.859375 0.625 1.046875 1.65625q0.203125 1.031249 0.203125 3.124999l0 8.78125q0 4.34375 1.34375 5.562502q1.359375 1.21875 2.96875 1.21875q1.859375 0 3.25 -1.046875q1.390625 -1.046875 1.890625 -2.500002q0.515625 -1.46875 0.515625 -5.78125l0 -6.375q0 -2.046875 0.1875 -3.015624q0.203125 -0.96875 1.046875 -1.609375q0.84375 -0.65625 2.0 -0.65625q1.09375 0 1.953125 0.640625q0.859375 0.625 1.03125 1.578125q0.171875 0.95312405 0.171875 3.062499l0 15.796877q0 1.9375 -0.1875 2.8125q-0.1875 0.859375 -0.921875 1.5q-0.734375 0.640625 -1.859375 0.640625q-3.09375 0 -2.984375 -4.4375q-3.203125 4.4375 -8.453125 4.4375q-3.46875 0 -5.90625 -2.078125q-2.4375 -2.078125 -2.4375 -7.453127zm51.742188 -6.28125l0 10.500002q0 2.046875 -0.171875 2.96875q-0.15625 0.921875 -1.0 1.640625q-0.84375 0.703125 -1.984375 0.703125q-1.03125 0 -1.921875 -0.625q-0.890625 -0.625 -1.109375 -1.625q-0.203125 -1.0 -0.203125 -3.0625l0 -9.203127q0 -3.84375 -1.15625 -5.171875q-1.140625 -1.34375 -3.15625 -1.34375q-1.828125 0 -3.21875 1.0625q-1.375 1.046875 -1.9375 2.625q-0.5625 1.578125 -0.5625 5.421875l0 6.609377q0 2.015625 -0.15625 2.9375q-0.15625 0.90625 -1.03125 1.640625q-0.859375 0.734375 -1.984375 0.734375q-1.046875 0 -1.9375 -0.640625q-0.890625 -0.65625 -1.078125 -1.609375q-0.1875 -0.96875 -0.1875 -3.0625l0 -15.765627q0 -2.140625 0.1875 -2.984374q0.203125 -0.84375 1.015625 -1.40625q0.8125 -0.5625 1.8125 -0.5625q0.9375 0 1.953125 0.75q1.03125 0.734375 1.03125 3.562499q3.203125 -4.312499 8.25 -4.312499q1.921875 0 3.796875 0.734375q1.875 0.71875 3.046875 2.359374q1.1875 1.625 1.4375 3.375q0.265625 1.734375 0.265625 3.75zm23.914062 12.140627l0 -0.625q-3.3125 4.296875 -8.375 4.296875q-4.890625 0 -7.796875 -3.734375q-2.890625 -3.734377 -2.890625 -9.640627q0 -5.578125 2.828125 -9.109375q2.828125 -3.546874 7.8125 -3.546874q4.859375 0 8.421875 3.921874l0 -8.296874q0 -3.4531255 0.859375 -4.2968755q0.875 -0.84374976 2.34375 -0.84374976q1.03125 0 1.890625 0.60937476q0.875 0.59375 1.078125 1.5625q0.203125 0.953125 0.203125 3.1562505l0 25.21875q0 2.125 -0.234375 3.046875q-0.21875 0.90625 -1.09375 1.421875q-0.859375 0.53125 -1.890625 0.53125q-3.15625 0 -3.15625 -3.671875zm-12.59375 -9.515627q0 4.3125 1.8125 6.296877q1.828125 1.984375 4.140625 1.984375q2.71875 0 4.5 -2.0625q1.78125 -2.062502 1.78125 -5.765627q0 -3.875 -1.734375 -6.171875q-1.734375 -2.296875 -4.59375 -2.296875q-2.59375 0 -4.25 2.140625q-1.65625 2.125 -1.65625 5.875zm29.953125 -6.1875q0 1.25 1.28125 1.953125q1.296875 0.703125 5.78125 1.796875q8.6875 2.109375 8.6875 7.25q0 4.046877 -2.9375 6.218752q-2.921875 2.15625 -8.1875 2.15625q-5.34375 0 -8.0625 -2.203125q-2.703125 -2.21875 -2.703125 -4.671875q0 -1.0625019 0.75 -1.8125019q0.75 -0.75 1.859375 -0.75q1.5 0 2.625 1.875q1.265625 2.062502 2.78125 2.734377q1.53125 0.671875 3.265625 0.671875q1.921875 0 3.125 -0.859375q1.203125 -0.859375 1.203125 -2.171875q0 -1.1875019 -1.015625 -2.062502q-1.015625 -0.890625 -5.578125 -1.921875q-4.5625 -1.046875 -6.65625 -2.9375q-2.078125 -1.890625 -2.078125 -4.484375q0 -2.9375 2.546875 -5.187499q2.546875 -2.25 7.625 -2.25q4.671875 0 7.4375 1.90625q2.765625 1.890624 2.765625 3.937499q0 1.078125 -0.703125 1.8125q-0.703125 0.734375 -1.953125 0.734375q-1.84375 0 -3.34375 -2.125q-1.484375 -2.140625 -4.484375 -2.140625q-1.609375 0 -2.828125 0.65625q-1.203125 0.65625 -1.203125 1.875z" fill-rule="nonzero"/></g></svg>