<svg version="1.1" viewBox="0.0 0.0 420.0 44.0" fill="none" stroke="none" stroke-linecap="square" stroke-miterlimit="10" xmlns:xlink="http://www.w3.org/1999/xlink" xmlns="http://www.w3.org/2000/svg"><clipPath id="p.0"><path d="m0 0l420.0 0l0 44.0l-420.0 0l0 -44.0z" clip-rule="nonzero"/></clipPath><g clip-path="url(#p.0)"><path fill="#000000" fill-opacity="0.0" d="m0 0l420.0 0l0 44.0l-420.0 0z" fill-rule="evenodd"/><path fill="#000000" fill-opacity="0.0" d="m0 2.88l420.0 0l0 44.0l-420.0 0z" fill-rule="evenodd"/><path fill="#f8f9fa" d="m56.83203 38.788124l3.359375 0l0 -27.171875l-3.359375 0l0 -3.15625l14.5 0l0 3.15625l-3.359375 0l0 27.171875l3.359375 0l0 3.171875l-14.5 0l0 -3.171875zm30.572662 3.75q-3.015625 0 -5.296875 -1.0q-2.28125 -1.015625 -3.84375 -2.78125q-1.5625 -1.78125 -2.359375 -4.1875q-0.78125 -2.40625 -0.78125 -5.234377q0 -3.171875 1.0 -5.59375q1.015625 -2.421875 2.765625 -4.09375q1.75 -1.6875 4.125 -2.546875q2.375 -0.875 5.109375 -0.875q4.421875 0 6.796875 1.828125q2.375 1.828125 2.375 4.609375q0 1.828125 -1.015625 2.90625q-1.0 1.078125 -2.78125 1.078125q-1.765625 0 -2.734375 -0.9375q-0.953125 -0.9375 -0.953125 -2.46875q0 -1.25 0.640625 -2.0625q0.65625 -0.8125 1.46875 -1.203125l0 -0.28125q-0.484375 -0.15625 -1.140625 -0.296875q-0.640625 -0.140625 -1.734375 -0.140625q-2.9375 0 -4.578125 1.84375q-1.625 1.84375 -1.625 5.3125l0 4.984375q0 3.171877 1.484375 4.828127q1.5 1.65625 4.140625 1.65625q2.6875 0 4.265625 -1.25q1.59375 -1.25 2.265625 -2.921875l2.6875 1.578125q-0.4375 1.203125 -1.234375 2.5q-0.78125 1.296875 -2.03125 2.359375q-1.25 1.046875 -2.984375 1.71875q-1.71875 0.671875 -4.03125 0.671875zm25.440048 0q-2.96875 0 -5.25 -0.984375q-2.28125 -0.984375 -3.84375 -2.734375q-1.5625 -1.75 -2.375 -4.171875q-0.8125 -2.4375 -0.8125 -5.312502q0 -3.015625 0.828125 -5.46875q0.84375 -2.453125 2.40625 -4.125q1.5625 -1.6875 3.734375 -2.59375q2.1875 -0.921875 4.890625 -0.921875q2.6875 0 4.84375 0.828125q2.15625 0.8125 3.671875 2.328125q1.515625 1.5 2.328125 3.671875q0.8125 2.15625 0.8125 4.796875l0 1.625l-15.796875 0l0 1.921875q0 3.218752 1.671875 4.859377q1.6875 1.625 4.484375 1.625q2.578125 0 4.15625 -1.171875q1.59375 -1.1875 2.265625 -2.859375l2.640625 1.578125q-0.421875 1.203125 -1.25 2.453125q-0.8125 1.25 -2.109375 2.28125q-1.296875 1.03125 -3.125 1.703125q-1.8125 0.671875 -4.171875 0.671875zm-4.5625 -16.078127l8.265625 0l0 -0.671875q0 -3.453125 -1.109375 -4.84375q-1.109375 -1.40625 -3.015625 -1.40625q-1.921875 0 -3.03125 1.40625q-1.109375 1.390625 -1.109375 4.84375l0 0.671875zm18.91806 12.328127l2.875 0l0 -27.890625l-2.875 -0.625l0 -2.734375l10.171875 -2.0625l0 33.3125l2.890625 0l0 3.171875l-13.0625 0l0 -3.171875zm23.710526 3.75q-4.078125 0 -5.9375 -1.890625q-1.84375 -1.90625 -1.84375 -5.3125q0 -7.437502 11.0 -7.437502l3.359375 0l0 -2.734375q0 -2.9375 -1.109375 -4.421875q-1.09375 -1.484375 -3.84375 -1.484375q-1.0 0 -1.71875 0.140625q-0.71875 0.140625 -1.25 0.390625l0 0.234375q0.484375 0.234375 0.9375 0.859375q0.453125 0.625 0.453125 1.6875q0 1.4375 -0.921875 2.421875q-0.90625 0.984375 -2.71875 0.984375q-1.453125 0 -2.40625 -1.0q-0.953125 -1.015625 -0.953125 -2.546875q0 -1.15625 0.671875 -2.28125q0.671875 -1.125 2.015625 -1.984375q1.34375 -0.875 3.328125 -1.40625q2.0 -0.53125 4.59375 -0.53125q5.21875 0 7.71875 2.234375q2.5 2.234375 2.5 6.3125l0 14.015627l2.875 0l0 2.734375q-0.8125 0.484375 -2.109375 0.75q-1.296875 0.265625 -2.6875 0.265625q-2.640625 0 -3.71875 -1.21875q-1.078125 -1.234375 -1.078125 -3.0625l0 -0.09375l-0.296875 0q-0.328125 0.828125 -0.84375 1.59375q-0.5 0.765625 -1.296875 1.390625q-0.78125 0.625 -1.9375 1.0q-1.15625 0.390625 -2.78125 0.390625zm2.734375 -4.328125q1.78125 0 2.8125 -0.8125q1.03125 -0.8125 1.03125 -2.828125l0 -3.796877l-2.59375 0q-2.296875 0 -3.4375 0.96875q-1.125 0.9531269 -1.125 2.734377l0 0.765625q0 1.53125 0.90625 2.25q0.921875 0.71875 2.40625 0.71875zm17.09555 0.578125l2.875 0l0 -17.125002l-2.875 -0.625l0 -2.734375l10.03125 -2.078125l0 4.765625l0.234375 0q0.671875 -1.921875 2.390625 -3.34375q1.734375 -1.421875 4.765625 -1.421875q4.609375 0 6.5 2.328125q1.890625 2.328125 1.890625 6.984375l0 13.250002l2.890625 0l0 3.171875l-12.828125 0l0 -3.171875l2.640625 0l0 -13.000002q0 -2.546875 -0.890625 -3.625q-0.875 -1.078125 -2.984375 -1.078125q-0.828125 0 -1.640625 0.21875q-0.8125 0.203125 -1.4375 0.671875q-0.625 0.453125 -1.015625 1.15625q-0.375 0.6875 -0.375 1.6875l0 13.968752l2.640625 0l0 3.171875l-12.8125 0l0 -3.171875zm41.994812 3.75q-2.296875 0 -4.15625 -0.9375q-1.84375 -0.9375 -3.140625 -2.65625q-1.296875 -1.734375 -2.0 -4.15625q-0.6875 -2.421875 -0.6875 -5.406252q0 -2.96875 0.6875 -5.390625q0.703125 -2.4375 2.0 -4.15625q1.296875 -1.734375 3.140625 -2.671875q1.859375 -0.9375 4.15625 -0.9375q1.34375 0 2.421875 0.359375q1.078125 0.359375 1.921875 0.9375q0.84375 0.578125 1.421875 1.359375q0.578125 0.765625 0.90625 1.578125l0.234375 0l0 -9.562499l-2.875 -0.625l0 -2.734375l10.171875 -2.0625l0 31.640625l2.890625 0.625l0 2.734375l-10.1875 2.0625l0 -4.328125l-0.234375 0q-0.671875 1.6875 -2.375 3.015625q-1.703125 1.3125 -4.296875 1.3125zm2.453125 -4.421875q1.921875 0 3.1875 -1.1875q1.265625 -1.203125 1.265625 -3.21875l0 -8.687502q0 -2.015625 -1.265625 -3.21875q-1.265625 -1.203125 -3.1875 -1.203125q-2.015625 0 -3.359375 1.390625q-1.34375 1.390625 -1.34375 4.078125l0 6.578127q0 2.6875 1.34375 4.078125q1.34375 1.390625 3.359375 1.390625zm24.132935 -24.625q-2.015625 0 -3.140625 -1.09375q-1.125 -1.109375 -1.125 -2.984375l0 -0.234375q0 -1.875 1.125 -2.96875q1.125 -1.109375 3.140625 -1.109375q2.015625 0 3.140625 1.109375q1.140625 1.09375 1.140625 2.96875l0 0.234375q0 1.875 -1.140625 2.984375q-1.125 1.09375 -3.140625 1.09375zm-6.46875 25.296875l2.875 0l0 -17.125002l-2.875 -0.625l0 -2.734375l10.171875 -2.078125l0 22.562502l2.875 0l0 3.171875l-13.046875 0l0 -3.171875zm28.408173 3.75q-3.015625 0 -5.2968903 -1.0q-2.28125 -1.015625 -3.84375 -2.78125q-1.5625 -1.78125 -2.359375 -4.1875q-0.78125 -2.40625 -0.78125 -5.234377q0 -3.171875 1.0 -5.59375q1.015625 -2.421875 2.765625 -4.09375q1.75 -1.6875 4.1250153 -2.546875q2.375 -0.875 5.109375 -0.875q4.421875 0 6.796875 1.828125q2.375 1.828125 2.375 4.609375q0 1.828125 -1.015625 2.90625q-1.0 1.078125 -2.78125 1.078125q-1.765625 0 -2.734375 -0.9375q-0.953125 -0.9375 -0.953125 -2.46875q0 -1.25 0.640625 -2.0625q0.65625 -0.8125 1.46875 -1.203125l0 -0.28125q-0.484375 -0.15625 -1.140625 -0.296875q-0.640625 -0.140625 -1.734375 -0.140625q-2.9375 0 -4.578125 1.84375q-1.625 1.84375 -1.625 5.3125l0 4.984375q0 3.171877 1.484375 4.828127q1.5 1.65625 4.140625 1.65625q2.6875 0 4.265625 -1.25q1.59375 -1.25 2.265625 -2.921875l2.6875 1.578125q-0.4375 1.203125 -1.234375 2.5q-0.78125 1.296875 -2.03125 2.359375q-1.25 1.046875 -2.984375 1.71875q-1.71875 0.671875 -4.03125 0.671875zm24.487915 -3.75l2.875 0l0 -18.625002l-2.875 0l0 -3.359375l2.875 0l0 -1.968749q0 -4.453125 2.78125 -6.90625q2.78125 -2.453125 7.828125 -2.453125q1.671875 0 2.890625 0.40625q1.234375 0.40625 2.046875 1.09375q0.828125 0.671875 1.203125 1.53125q0.390625 0.859375 0.390625 1.765625q0 1.546875 -0.875 2.515625q-0.859375 0.953125 -2.390625 0.953125q-1.59375 0 -2.40625 -0.859375q-0.8125 -0.875 -0.8125 -2.125q0 -0.953125 0.40625 -1.484375q0.40625 -0.53125 0.84375 -0.71875l0 -0.296875q-0.484375 -0.09375 -1.15625 -0.09375q-1.828125 0 -2.640625 1.25q-0.8125 1.25 -0.8125 4.125l0 3.265624l4.796875 0l0 3.359375l-4.796875 0l0 18.625002l3.84375 0l0 3.171875l-14.015625 0l0 -3.171875zm29.042542 3.75q-4.609375 0 -6.515625 -2.328125q-1.890625 -2.328125 -1.890625 -6.984375l0 -11.562502l-2.875 -0.625l0 -2.734375l10.171875 -2.078125l0 16.765627q0 2.53125 0.890625 3.625q0.890625 1.078125 3.0 1.078125q0.8125 0 1.625 -0.21875q0.8125 -0.21875 1.4375 -0.671875q0.625 -0.453125 1.0 -1.15625q0.390625 -0.703125 0.390625 -1.703125l0 -12.281252l-2.875 -0.625l0 -2.734375l10.171875 -2.078125l0 20.890627l2.890625 0.625l0 2.734375l-10.03125 2.0625l0 -4.75l-0.25 0q-0.671875 1.921875 -2.40625 3.34375q-1.71875 1.40625 -4.734375 1.40625zm20.493591 -3.75l2.875 0l0 -17.125002l-2.875 -0.625l0 -2.734375l10.03125 -2.078125l0 4.765625l0.234375 0q0.671875 -1.921875 2.390625 -3.34375q1.734375 -1.421875 4.765625 -1.421875q4.609375 0 6.5 2.328125q1.890625 2.328125 1.890625 6.984375l0 13.250002l2.890625 0l0 3.171875l-12.828125 0l0 -3.171875l2.640625 0l0 -13.000002q0 -2.546875 -0.890625 -3.625q-0.875 -1.078125 -2.984375 -1.078125q-0.828125 0 -1.640625 0.21875q-0.8125 0.203125 -1.4375 0.671875q-0.625 0.453125 -1.015625 1.15625q-0.375 0.6875 -0.375 1.6875l0 13.968752l2.640625 0l0 3.171875l-12.8125 0l0 -3.171875zm41.994812 3.75q-2.296875 0 -4.15625 -0.9375q-1.84375 -0.9375 -3.140625 -2.65625q-1.296875 -1.734375 -2.0 -4.15625q-0.6875 -2.421875 -0.6875 -5.406252q0 -2.96875 0.6875 -5.390625q0.703125 -2.4375 2.0 -4.15625q1.296875 -1.734375 3.140625 -2.671875q1.859375 -0.9375 4.15625 -0.9375q1.34375 0 2.421875 0.359375q1.078125 0.359375 1.921875 0.9375q0.84375 0.578125 1.421875 1.359375q0.578125 0.765625 0.90625 1.578125l0.234375 0l0 -9.562499l-2.875 -0.625l0 -2.734375l10.171875 -2.0625l0 31.640625l2.890625 0.625l0 2.734375l-10.1875 2.0625l0 -4.328125l-0.234375 0q-0.671875 1.6875 -2.375 3.015625q-1.703125 1.3125 -4.296875 1.3125zm2.453125 -4.421875q1.921875 0 3.1875 -1.1875q1.265625 -1.203125 1.265625 -3.21875l0 -8.687502q0 -2.015625 -1.265625 -3.21875q-1.265625 -1.203125 -3.1875 -1.203125q-2.015625 0 -3.359375 1.390625q-1.34375 1.390625 -1.34375 4.078125l0 6.578127q0 2.6875 1.34375 4.078125q1.34375 1.390625 3.359375 1.390625zm28.55481 4.421875q-2.640625 0 -4.03125 -0.984375q-1.390625 -0.984375 -1.78125 -2.1875l-0.1875 0l0 2.59375l-4.703125 0l0 -7.484375l4.703125 0l0 0.765625q0 1.875 1.140625 2.84375q1.15625 0.953125 3.75 0.953125q2.3125 0 3.359375 -0.71875q1.0625 -0.734375 1.0625 -2.21875q0 -1.203125 -0.765625 -1.84375q-0.765625 -0.65625 -2.546875 -1.171875l-2.25 -0.625q-4.1875 -1.1562519 -6.1875 -3.093752q-1.984375 -1.953125 -1.984375 -5.265625q0 -3.78125 2.5 -5.828125q2.5 -2.046875 6.578125 -2.046875q2.546875 0 3.890625 0.96875q1.34375 0.953125 1.71875 2.15625l0.203125 0l0 -2.546875l4.703125 0l0 7.5l-4.703125 0l0 -0.875q0 -1.828125 -1.140625 -2.75q-1.125 -0.9375 -3.65625 -0.9375q-3.65625 0 -3.65625 2.640625q0 1.234375 0.734375 2.015625q0.75 0.765625 2.71875 1.25l2.0625 0.515625q2.015625 0.53125 3.546875 1.203125q1.546875 0.671875 2.578125 1.609375q1.03125 0.9375 1.5625 2.265625q0.53125 1.3125019 0.53125 3.140627q0 3.984375 -2.6875 6.078125q-2.6875 2.078125 -7.0625 2.078125z" fill-rule="nonzero"/><path fill="#5468ff" d="m0.96 42.23622l22.692915 -42.23622l22.692911 42.23622z" fill-rule="evenodd"/></g></svg>